<svg width="100" height="100" xmlns="http://www.w3.org/2000/svg"><g fill="#003D7D" fill-rule="evenodd"><path d="M38.5 50C44.84 50 50 44.84 50 38.5S44.841 27 38.5 27 27 32.16 27 38.5 32.159 50 38.5 50zm0-19.106c4.194 0 7.606 3.412 7.606 7.606s-3.412 7.606-7.606 7.606c-4.195 0-7.606-3.412-7.606-7.606s3.411-7.606 7.606-7.606z" fill-rule="nonzero"/><path d="M38 40a2 2 0 0 0 0-4 2 2 0 1 0 0 4z"/><path d="M94.14 53.125H66.53a30.762 30.762 0 0 0 2.4-6.184h6.797a1.953 1.953 0 0 0 1.953-1.953V32.693a1.953 1.953 0 0 0-1.953-1.953h-6.795a30.857 30.857 0 0 0-3.088-7.447l4.807-4.808c.763-.763.763-2 0-2.762L61.957 7.03a1.953 1.953 0 0 0-2.762 0l-4.808 4.807A30.837 30.837 0 0 0 46.94 8.75V1.953A1.953 1.953 0 0 0 44.987 0H32.692a1.953 1.953 0 0 0-1.953 1.953V8.75a30.877 30.877 0 0 0-7.446 3.088l-4.808-4.808c-.762-.763-2-.763-2.762 0L7.03 15.723a1.952 1.952 0 0 0 0 2.762l4.808 4.808a30.853 30.853 0 0 0-3.086 7.447H1.953A1.953 1.953 0 0 0 0 32.693v12.295c0 1.078.874 1.953 1.953 1.953H8.75a30.837 30.837 0 0 0 3.087 7.447L7.03 59.195a1.953 1.953 0 0 0 0 2.762l8.694 8.694a1.953 1.953 0 0 0 2.762 0l4.808-4.807a30.832 30.832 0 0 0 7.447 3.088v6.795c0 1.079.874 1.953 1.953 1.953h8.713v16.46c0 3.232 2.63 5.86 5.86 5.86h25.39a1.953 1.953 0 1 0 0-3.906h-25.39a1.955 1.955 0 0 1-1.953-1.953V58.984c0-1.076.876-1.953 1.953-1.953H94.14c1.077 0 1.953.877 1.953 1.953v35.157a1.955 1.955 0 0 1-1.953 1.953h-3.907a1.953 1.953 0 0 0 0 3.906h3.907A5.866 5.866 0 0 0 100 94.14V58.985c0-3.23-2.628-5.859-5.86-5.859zM34.646 73.774v-6.38c0-.92-.643-1.717-1.543-1.91a26.988 26.988 0 0 1-9.042-3.748 1.954 1.954 0 0 0-2.442.258l-4.514 4.514-5.932-5.932 4.514-4.514c.65-.651.76-1.668.259-2.442a27.026 27.026 0 0 1-3.749-9.041 1.953 1.953 0 0 0-1.91-1.544h-6.38v-8.39h6.382c.921 0 1.717-.643 1.91-1.543a27.007 27.007 0 0 1 3.747-9.041c.5-.773.393-1.79-.258-2.442l-4.515-4.515 5.932-5.932 4.515 4.515c.651.65 1.668.759 2.442.258a27.014 27.014 0 0 1 9.04-3.749 1.953 1.953 0 0 0 1.544-1.91v-6.38h8.39v6.38c0 .922.643 1.717 1.544 1.91a27.022 27.022 0 0 1 9.04 3.749c.774.5 1.791.392 2.443-.259l4.514-4.514 5.932 5.932-4.514 4.514a1.953 1.953 0 0 0-.258 2.442 27.026 27.026 0 0 1 3.748 9.042c.193.9.989 1.543 1.91 1.543h6.38v8.39H67.39c-.92 0-1.716.643-1.91 1.544a26.995 26.995 0 0 1-3.434 8.546h-10.17c3.876-3.54 6.312-8.633 6.312-14.285 0-10.67-8.68-19.35-19.35-19.35-1.656 0-3.304.211-4.897.627a1.952 1.952 0 1 0 .987 3.779c1.27-.331 2.586-.5 3.91-.5 8.517 0 15.444 6.929 15.444 15.444S47.356 54.283 38.84 54.283c-8.515 0-15.444-6.928-15.444-15.443 0-1.324.169-2.64.5-3.91a1.952 1.952 0 1 0-3.78-.987 19.427 19.427 0 0 0-.625 4.897c0 10.67 8.68 19.35 19.349 19.35.898 0 1.783-.064 2.65-.183a5.893 5.893 0 0 0-.084.977v14.79h-6.76z" fill-rule="nonzero"/><path d="M73 65.208v-2.27c0-1.07-.895-1.938-2-1.938-1.104 0-2 .867-2 1.938v2.27c-2.327.8-4 2.953-4 5.48v3.875c0 2.525 1.673 4.68 4 5.479v10.02c0 1.07.896 1.938 2 1.938 1.105 0 2-.868 2-1.938v-10.02c2.328-.8 4-2.954 4-5.48v-3.874c0-2.527-1.672-4.68-4-5.48zm-4 5.48c0-1.069.898-1.938 2-1.938 1.103 0 2 .87 2 1.938v3.875c0 1.068-.898 1.937-2 1.937-1.103 0-2-.87-2-1.937v-3.875zm24 11.624v-3.876c0-2.525-1.673-4.678-4-5.478v-10.02c0-1.07-.896-1.938-2-1.938-1.105 0-2 .867-2 1.938v10.02c-2.328.8-4 2.953-4 5.478v3.876c0 2.526 1.672 4.68 4 5.48v2.27c0 1.07.895 1.938 2 1.938 1.104 0 2-.868 2-1.938v-2.27c2.327-.8 4-2.954 4-5.48zm-8-3.876c0-1.068.897-1.936 2-1.936 1.102 0 2 .868 2 1.936v3.876c0 1.068-.898 1.938-2 1.938-1.103 0-2-.87-2-1.938v-3.876zM55 92c1.105 0 2-.868 2-1.938v-2.27c2.328-.8 4-2.954 4-5.48v-3.876c0-2.525-1.672-4.678-4-5.478v-10.02c0-1.07-.895-1.938-2-1.938-1.104 0-2 .867-2 1.938v10.02c-2.327.8-4 2.953-4 5.478v3.876c0 2.526 1.673 4.68 4 5.48v2.27c0 1.07.895 1.938 2 1.938zm-2-13.564c0-1.068.898-1.936 2-1.936 1.103 0 2 .868 2 1.936v3.876c0 1.068-.897 1.938-2 1.938-1.102 0-2-.87-2-1.938v-3.876z" fill-rule="nonzero"/><path d="M27 29a2.002 2.002 0 0 0 1.415-3.415 2.001 2.001 0 0 0-2.829 0v.002A1.999 1.999 0 0 0 27 29zm55 67H82a2 2 0 1 0-.002 3.999A2 2 0 0 0 82 96z"/></g></svg>