<svg width="93" height="92" xmlns="http://www.w3.org/2000/svg"><path d="M7.86 43.82h29.104v5.538c0 .705.571 1.278 1.275 1.278h16.517c.703 0 1.274-.573 1.274-1.278V43.82h27.883c.704 0 1.275-.573 1.275-1.278V1.278C85.188.572 84.617 0 83.913 0H7.861c-.704 0-1.275.572-1.275 1.278v41.265c0 .705.57 1.278 1.275 1.278zm45.621 4.26H39.514v-4.26H53.48v4.26zm1.275-6.815H9.135v-4.9H82.64v4.899H54.756v.001zm27.882-38.71V33.81H9.135V2.556h73.503zM17.313 19.169c0-5.793 4.685-10.489 10.463-10.489v10.49h10.463c0 5.792-4.684 10.488-10.462 10.488-5.78 0-10.464-4.696-10.464-10.489zm36.168 10.489V21.19c0-.705.571-1.278 1.275-1.278.703 0 1.274.573 1.274 1.278v8.466c0 .705-.57 1.278-1.274 1.278a1.277 1.277 0 0 1-1.275-1.278zm3.983 0v-11.66c0-.706.571-1.279 1.275-1.279s1.275.573 1.275 1.278v11.66c0 .706-.571 1.279-1.275 1.279a1.277 1.277 0 0 1-1.275-1.278zm3.984 0V13.364c0-.705.57-1.278 1.274-1.278.704 0 1.275.573 1.275 1.278v16.293c0 .705-.571 1.278-1.275 1.278a1.277 1.277 0 0 1-1.274-1.278zm3.983 0V12.565c0-.705.57-1.278 1.275-1.278.703 0 1.274.573 1.274 1.278v17.092c0 .705-.57 1.278-1.274 1.278a1.277 1.277 0 0 1-1.275-1.278zm3.983 0V7.933c0-.705.571-1.278 1.275-1.278.703 0 1.274.573 1.274 1.278v21.724c0 .705-.57 1.278-1.274 1.278a1.277 1.277 0 0 1-1.275-1.278zm23.502 44.68l-7.754-20.923a1.276 1.276 0 0 0-1.195-.833H9.028c-.533 0-1.01.332-1.195.833L.08 74.338a1.26 1.26 0 0 0-.08.444v8.107c0 .706.571 1.278 1.275 1.278h1.834C1.83 87.509.78 90.202.76 90.257a1.278 1.278 0 0 0 .724 1.655 1.272 1.272 0 0 0 1.65-.726c.044-.112 4.384-11.26 6.244-16.537 1.698-5.45 7.148-6.494 10.472-5.5.969.29 4.059 1.493 3.147 4.7-1.828 5.263-5.273 16.383-5.307 16.494a1.277 1.277 0 0 0 1.218 1.656c.543 0 1.047-.351 1.218-.9.017-.058.994-3.206 2.178-6.933h48.391a1030.51 1030.51 0 0 1 2.177 6.933 1.275 1.275 0 1 0 2.436-.756c-.034-.111-3.478-11.231-5.284-16.426-.933-3.275 2.155-4.477 3.125-4.768 3.326-.996 8.775.052 10.488 5.545 1.844 5.23 6.184 16.38 6.228 16.492a1.275 1.275 0 1 0 2.374-.929c-.021-.055-1.072-2.752-2.349-6.09h1.834c.704 0 1.275-.572 1.275-1.278v-8.107a1.355 1.355 0 0 0-.084-.444zM2.549 81.61v-5.551h3.61a557.302 557.302 0 0 1-2.078 5.551H2.55zM20.58 66.701c-2.154-.647-4.549-.61-6.753.113l2.431-5.995c.008-.015.797-1.558 4.72-1.558 3.756 0 5.227.42 5.23.42.047.015.112.03.16.04.008.002.75.151 1.07.727.35.63.106 1.591-.16 2.287a1.276 1.276 0 0 0 2.38.916c.227-.598.35-1.154.423-1.69 1.206.092 1.604.356 1.71.483.37.452.048 2.037-.292 3.717l-.226 1.13c-.539 2.785-4.766 2.713-6.368 2.582-.84-1.438-2.32-2.571-4.325-3.172zM69.877 81.61H23.118a437.15 437.15 0 0 1 1.818-5.551h43.123c.55 1.636 1.188 3.59 1.818 5.551zm2.539-14.909c-2 .6-3.476 1.726-4.313 3.167-1.594.122-5.843.184-6.377-2.577L61.5 66.16c-.34-1.678-.662-3.263-.292-3.715.105-.127.488-.371 1.71-.472.073.533.196 1.085.422 1.679a1.274 1.274 0 1 0 2.38-.916c-.266-.696-.51-1.657-.16-2.287.318-.573 1.055-.724 1.054-.724.052-.008.114-.023.164-.038.014-.004 1.485-.425 5.241-.425 3.925 0 4.713 1.543 4.715 1.547l2.437 6.01c-2.206-.728-4.601-.764-6.755-.117zm10.31 2.1l-3.617-8.915c-.119-.324-1.33-3.18-7.092-3.18-3.787 0-5.498.4-5.908.512-.417.086-1.92.488-2.753 1.942-.041.072-.056.154-.092.227-2.002.086-3.27.51-4.028 1.435-1.14 1.39-.76 3.258-.236 5.845l.222 1.11c.719 3.716 4.514 4.72 7.663 4.72.16 0 .31-.014.467-.019-.017.336-.022.675.018 1.025H25.633c.04-.349.04-.687.023-1.023.153.005.298.017.455.017 3.15 0 6.943-1.003 7.663-4.719l.222-1.109c.525-2.586.904-4.456-.236-5.846-.758-.927-1.992-1.346-4.028-1.435-.036-.074-.05-.156-.092-.228-.832-1.454-2.336-1.856-2.753-1.942-.41-.114-2.12-.512-5.908-.512-5.762 0-6.973 2.856-7.075 3.14l-3.627 8.94c-1.383 1.163-2.507 2.733-3.193 4.718H3.108l6.806-18.368h73.167l6.808 18.368H85.91c-.692-1.978-1.81-3.542-3.185-4.703zm6.186 12.809c-.725-1.91-1.46-3.864-2.077-5.551h3.612v5.551h-1.535z" fill="#E5B401"/></svg>