<svg width="102" height="98" xmlns="http://www.w3.org/2000/svg"><g fill="#016C60"><path d="M100.02 66.576a5.547 5.547 0 0 0-4.528-1.221L62.9 71.02V59.394c2.513-.153 7.138-.878 10.33-4.065 4.47-4.465 4.12-11.797 4.101-12.106a1.694 1.694 0 0 0-1.603-1.602c-.307-.027-7.648-.367-12.114 4.098-.255.255-.49.521-.714.791v-5.79c2.513-.154 7.138-.88 10.33-4.066 4.47-4.464 4.12-11.796 4.101-12.105a1.694 1.694 0 0 0-1.603-1.602c-.307-.024-7.648-.367-12.114 4.099-.255.255-.49.521-.714.791v-5.045l9.54-9.336a7.757 7.757 0 0 0 2.36-5.582 7.758 7.758 0 0 0-2.36-5.584l-.001-.002c-3.094-3.027-8.114-3.05-11.239-.07-3.126-2.981-8.145-2.957-11.24.072a7.758 7.758 0 0 0-2.36 5.584c0 2.11.838 4.094 2.361 5.583L59.5 22.79v5.046a11.115 11.115 0 0 0-.714-.792c-4.466-4.468-11.806-4.123-12.114-4.099a1.694 1.694 0 0 0-1.603 1.602c-.019.31-.37 7.641 4.102 12.105 3.19 3.19 7.816 3.914 10.329 4.066v5.79a10.757 10.757 0 0 0-.714-.791c-4.468-4.464-11.803-4.123-12.114-4.097a1.694 1.694 0 0 0-1.603 1.601c-.019.31-.37 7.642 4.102 12.106 3.19 3.19 7.816 3.914 10.329 4.065v9.545l-7.298-7.292A1.699 1.699 0 0 0 51 61.149H34c0-.94-.76-1.7-1.7-1.7H0v3.398h23.8V86.63H0v3.398h32.3c.94 0 1.7-.76 1.7-1.7h4.699l18.175 9.083a5.55 5.55 0 0 0 5.284-.168l37.086-21.62A5.566 5.566 0 0 0 102 70.827a5.545 5.545 0 0 0-1.98-4.252zM66.017 48.12c2.291-2.29 5.82-2.905 7.88-3.063-.155 2.052-.767 5.565-3.073 7.869-2.291 2.29-5.82 2.905-7.877 3.063.154-2.052.766-5.565 3.07-7.869zm0-18.673c2.291-2.291 5.82-2.906 7.88-3.064-.155 2.052-.767 5.565-3.073 7.868-2.29 2.289-5.814 2.903-7.872 3.063.16-2.057.775-5.579 3.065-7.867zM51.575 34.25c-2.294-2.29-2.91-5.816-3.067-7.873 2.053.154 5.569.766 7.874 3.07 2.29 2.287 2.906 5.809 3.065 7.866-2.058-.16-5.583-.774-7.872-3.063zm0 18.675c-2.294-2.29-2.91-5.818-3.067-7.874 2.053.155 5.569.765 7.874 3.068 2.29 2.29 2.906 5.812 3.065 7.869-2.058-.16-5.583-.775-7.872-3.063zM30.6 86.63h-3.4V62.847h3.4V86.63zm21.74-75.6A4.392 4.392 0 0 1 51 7.874c0-1.191.476-2.313 1.338-3.157a4.673 4.673 0 0 1 3.28-1.327c1.184 0 2.372.444 3.277 1.327l1.117 1.094a1.697 1.697 0 0 0 2.376 0l1.117-1.094c1.807-1.767 4.747-1.767 6.554-.002a4.385 4.385 0 0 1 .003 6.313L61.2 19.7l-8.86-8.67zm45.19 61.657l-37.085 21.62a2.148 2.148 0 0 1-2.05.064l-18.533-9.26a1.697 1.697 0 0 0-.762-.18H34V64.546h16.296l13.395 13.385c.578.577.909 1.377.909 2.196a3.11 3.11 0 0 1-5.306 2.197l-8.792-8.786-2.404 2.402 8.793 8.786a6.466 6.466 0 0 0 4.601 1.904c3.587 0 6.508-2.918 6.508-6.503a6.46 6.46 0 0 0-1.906-4.598l-1.377-1.376 31.355-5.45a2.131 2.131 0 0 1 1.758.474 2.15 2.15 0 0 1-.3 3.51z"/><path d="M35.75 5h-3.5A5.256 5.256 0 0 1 27 10.25v3.5A5.256 5.256 0 0 1 32.25 19h3.5A5.256 5.256 0 0 1 41 13.75v-3.5A5.256 5.256 0 0 1 35.75 5zM34 13.804A8.729 8.729 0 0 0 32.196 12 8.729 8.729 0 0 0 34 10.196 8.729 8.729 0 0 0 35.804 12 8.729 8.729 0 0 0 34 13.804zM25.75 28h-3.5A5.256 5.256 0 0 1 17 33.25v3.5A5.256 5.256 0 0 1 22.25 42h3.5A5.256 5.256 0 0 1 31 36.75v-3.5A5.256 5.256 0 0 1 25.75 28zM24 36.804A8.729 8.729 0 0 0 22.196 35 8.729 8.729 0 0 0 24 33.196 8.729 8.729 0 0 0 25.804 35 8.729 8.729 0 0 0 24 36.804zM90.75 12h-3.5A5.256 5.256 0 0 1 82 17.25v3.5A5.256 5.256 0 0 1 87.25 26h3.5A5.256 5.256 0 0 1 96 20.75v-3.5A5.256 5.256 0 0 1 90.75 12zM89 20.804A8.729 8.729 0 0 0 87.196 19 8.729 8.729 0 0 0 89 17.196 8.729 8.729 0 0 0 90.804 19 8.729 8.729 0 0 0 89 20.804z"/></g></svg>