<svg width="97" height="86" xmlns="http://www.w3.org/2000/svg"><g fill="#FE8200" fill-rule="evenodd"><path d="M54.075 58.934a8.839 8.839 0 0 0-1.506 1.953l-4.852 8.548a1.368 1.368 0 0 0 .237 1.658 1.442 1.442 0 0 0 1.695.232l8.735-4.748a9 9 0 0 0 1.996-1.474l35.76-34.991a2.836 2.836 0 0 0 0-4.068l-2.147-2.102a2.953 2.953 0 0 0-2.079-.842c-.785 0-1.523.299-2.078.842L69.664 43.68V7.335C69.664 3.29 66.302 0 62.17 0H7.496C3.363 0 0 3.29 0 7.335v59.442c0 .768.636 1.39 1.42 1.39h4.655V84.61c0 .767.636 1.39 1.42 1.39h60.748c.785 0 1.421-.623 1.421-1.39V64.33c0-.768-.636-1.39-1.42-1.39-.785 0-1.422.622-1.422 1.39V83.22h-51.83v-1.581c0-.768-.637-1.39-1.421-1.39-.785 0-1.421.622-1.421 1.39v1.581H8.917V11.793c0-.053.043-.096.097-.096h3.135v63.996c0 .768.637 1.39 1.421 1.39.785 0 1.421-.622 1.421-1.39V11.697h44.14c.785 0 1.421-.622 1.421-1.39 0-.768-.636-1.39-1.42-1.39h-44.14V7.334a7.2 7.2 0 0 0-1.627-4.554H62.17c2.566 0 4.654 2.043 4.654 4.554v1.581h-1.617c-.785 0-1.421.623-1.421 1.39 0 .769.636 1.391 1.42 1.391h1.618V46.46L54.075 58.934zM12.15 8.916H9.015c-1.621 0-2.94 1.29-2.94 2.877v53.594H2.842V7.335c0-2.511 2.088-4.554 4.654-4.554 2.565 0 4.653 2.043 4.653 4.554v1.581zm44.854 55.23l-4.388 2.385 2.437-4.294a6.05 6.05 0 0 1 .405-.614l2.174 2.127c-.201.143-.41.277-.628.396zm34.84-38.238c.008-.007.03-.028.07-.028.04 0 .062.021.069.028l2.148 2.102a.094.094 0 0 1 0 .135l-2.217 2.17-2.287-2.238 2.218-2.169zm-4.226 4.136l2.286 2.237-30.207 29.558-2.286-2.237 30.207-29.558z" fill-rule="nonzero"/><path d="M57.589 24H24.411c-.78 0-1.411.672-1.411 1.5s.632 1.5 1.411 1.5h33.178c.78 0 1.411-.672 1.411-1.5s-.632-1.5-1.411-1.5zm0 7H24.411c-.78 0-1.411.672-1.411 1.5s.632 1.5 1.411 1.5h33.178c.78 0 1.411-.672 1.411-1.5s-.632-1.5-1.411-1.5zm0 7H24.411c-.78 0-1.411.672-1.411 1.5s.632 1.5 1.411 1.5h33.178c.78 0 1.411-.672 1.411-1.5s-.632-1.5-1.411-1.5zm0 7H24.411c-.78 0-1.411.672-1.411 1.5s.632 1.5 1.411 1.5h33.178c.78 0 1.411-.672 1.411-1.5s-.632-1.5-1.411-1.5zm-9.003 8H24.414c-.781 0-1.414.672-1.414 1.5s.633 1.5 1.414 1.5h24.172c.781 0 1.414-.672 1.414-1.5s-.633-1.5-1.414-1.5z"/></g></svg>